<svg xmlns="http://www.w3.org/2000/svg" xmlns:xlink="http://www.w3.org/1999/xlink" width="300" zoomAndPan="magnify" viewBox="0 0 224.87999 225" height="300" preserveAspectRatio="xMidYMid meet" version="1.0"><defs><clipPath id="010ce3c44f"><path d="M 37 8.640625 L 206.828125 8.640625 L 206.828125 216.28125 L 37 216.28125 Z M 37 8.640625 " clip-rule="nonzero"/></clipPath><clipPath id="60c43539cf"><path d="M 17.929688 143 L 101 143 L 101 184 L 17.929688 184 Z M 17.929688 143 " clip-rule="nonzero"/></clipPath></defs><g clip-path="url(#010ce3c44f)"><path fill="#64ffda" d="M 150.546875 216.230469 C 150.058594 216.230469 149.574219 216.179688 149.09375 216.085938 C 148.613281 215.992188 148.148438 215.847656 147.695312 215.660156 C 147.246094 215.476562 146.816406 215.246094 146.410156 214.972656 C 146.003906 214.703125 145.628906 214.394531 145.28125 214.046875 C 144.9375 213.703125 144.628906 213.328125 144.355469 212.921875 C 144.085938 212.511719 143.855469 212.085938 143.667969 211.632812 C 143.480469 211.179688 143.339844 210.714844 143.246094 210.234375 C 143.148438 209.757812 143.101562 209.273438 143.101562 208.785156 L 143.101562 170.269531 C 143.101562 169.996094 143.117188 169.71875 143.148438 169.445312 C 143.433594 166.9375 143.472656 164.425781 143.261719 161.910156 C 143.054688 159.394531 142.605469 156.925781 141.910156 154.496094 C 141.21875 152.070312 140.292969 149.734375 139.144531 147.488281 C 137.992188 145.242188 136.632812 143.132812 135.0625 141.152344 C 134.632812 140.605469 134.285156 140.007812 134.019531 139.359375 C 133.753906 138.710938 133.585938 138.042969 133.511719 137.347656 C 133.433594 136.652344 133.457031 135.960938 133.578125 135.269531 C 133.695312 134.582031 133.910156 133.921875 134.214844 133.292969 C 134.519531 132.664062 134.90625 132.089844 135.371094 131.570312 C 135.839844 131.050781 136.371094 130.605469 136.960938 130.234375 C 137.554688 129.863281 138.1875 129.582031 138.859375 129.390625 C 139.53125 129.195312 140.214844 129.101562 140.914062 129.101562 C 165.3125 129.101562 191.242188 113.144531 191.242188 83.574219 C 191.242188 83.410156 191.242188 83.253906 191.242188 83.097656 C 191.40625 80.542969 191.351562 77.996094 191.078125 75.449219 C 190.804688 72.90625 190.316406 70.402344 189.613281 67.941406 C 188.910156 65.480469 188.007812 63.097656 186.894531 60.789062 C 185.785156 58.484375 184.488281 56.289062 183.003906 54.203125 C 182.371094 53.324219 181.957031 52.347656 181.75 51.285156 C 181.542969 50.21875 181.570312 49.160156 181.828125 48.105469 C 183.628906 40.636719 184.074219 33.082031 183.160156 25.453125 C 179.035156 27.148438 172.84375 30.386719 164.613281 36.566406 C 163.777344 37.195312 162.847656 37.625 161.828125 37.863281 C 160.8125 38.097656 159.789062 38.117188 158.761719 37.921875 C 146.496094 35.589844 134.121094 34.421875 121.632812 34.421875 C 109.148438 34.421875 96.769531 35.589844 84.503906 37.921875 C 83.476562 38.117188 82.457031 38.097656 81.4375 37.863281 C 80.417969 37.625 79.492188 37.195312 78.65625 36.566406 C 70.378906 30.304688 64.15625 27.089844 60.03125 25.40625 C 59.046875 33.027344 59.523438 40.554688 61.460938 47.988281 C 61.742188 49.058594 61.78125 50.136719 61.578125 51.226562 C 61.375 52.3125 60.953125 53.304688 60.308594 54.203125 C 58.820312 56.285156 57.519531 58.480469 56.40625 60.785156 C 55.296875 63.089844 54.386719 65.472656 53.683594 67.933594 C 52.980469 70.394531 52.492188 72.898438 52.21875 75.441406 C 51.945312 77.988281 51.890625 80.535156 52.054688 83.089844 C 52.054688 83.253906 52.054688 83.417969 52.054688 83.582031 C 52.054688 113.152344 77.984375 129.109375 102.382812 129.109375 C 103.082031 129.109375 103.769531 129.203125 104.445312 129.398438 C 105.117188 129.589844 105.75 129.875 106.34375 130.246094 C 106.9375 130.617188 107.46875 131.066406 107.933594 131.589844 C 108.402344 132.109375 108.789062 132.6875 109.09375 133.316406 C 109.398438 133.949219 109.609375 134.609375 109.726562 135.300781 C 109.84375 135.992188 109.863281 136.683594 109.785156 137.382812 C 109.707031 138.078125 109.535156 138.75 109.265625 139.398438 C 109 140.046875 108.648438 140.644531 108.210938 141.191406 C 105.03125 145.15625 102.75 149.582031 101.363281 154.472656 C 99.972656 159.378906 99.566406 164.363281 100.148438 169.429688 C 100.1875 169.707031 100.203125 169.984375 100.203125 170.265625 L 100.203125 208.785156 C 100.203125 209.273438 100.15625 209.757812 100.058594 210.234375 C 99.964844 210.714844 99.824219 211.179688 99.636719 211.632812 C 99.449219 212.085938 99.21875 212.511719 98.949219 212.921875 C 98.675781 213.328125 98.367188 213.703125 98.023438 214.046875 C 97.675781 214.394531 97.300781 214.703125 96.894531 214.972656 C 96.488281 215.246094 96.058594 215.476562 95.609375 215.660156 C 95.15625 215.847656 94.691406 215.992188 94.210938 216.085938 C 93.730469 216.179688 93.246094 216.230469 92.757812 216.230469 C 92.269531 216.230469 91.785156 216.179688 91.308594 216.085938 C 90.828125 215.992188 90.363281 215.847656 89.910156 215.660156 C 89.460938 215.476562 89.03125 215.246094 88.625 214.972656 C 88.21875 214.703125 87.84375 214.394531 87.496094 214.046875 C 87.152344 213.703125 86.84375 213.328125 86.570312 212.921875 C 86.300781 212.511719 86.070312 212.085938 85.882812 211.632812 C 85.695312 211.179688 85.554688 210.714844 85.460938 210.234375 C 85.363281 209.757812 85.316406 209.273438 85.316406 208.785156 L 85.316406 170.664062 C 84.582031 163.804688 85.15625 157.054688 87.042969 150.414062 C 87.769531 147.835938 88.691406 145.328125 89.804688 142.890625 C 83.953125 141.898438 78.324219 140.175781 72.917969 137.726562 C 67.511719 135.273438 62.507812 132.171875 57.90625 128.421875 C 44.613281 117.332031 37.28125 101.503906 37.183594 83.820312 C 36.996094 80.722656 37.050781 77.632812 37.347656 74.542969 C 37.644531 71.453125 38.179688 68.410156 38.949219 65.402344 C 39.722656 62.398438 40.71875 59.472656 41.949219 56.621094 C 43.175781 53.773438 44.617188 51.035156 46.269531 48.414062 C 45.078125 42.769531 44.546875 37.066406 44.675781 31.304688 C 44.808594 25.539062 45.601562 19.867188 47.054688 14.285156 C 47.261719 13.488281 47.589844 12.746094 48.046875 12.058594 C 48.5 11.371094 49.050781 10.773438 49.703125 10.269531 C 50.355469 9.765625 51.074219 9.382812 51.851562 9.113281 C 52.632812 8.847656 53.433594 8.714844 54.257812 8.714844 C 56.191406 8.714844 66.417969 9.417969 84.960938 22.710938 C 97.097656 20.589844 109.332031 19.53125 121.65625 19.53125 C 133.980469 19.53125 146.210938 20.589844 158.351562 22.710938 C 176.894531 9.417969 187.128906 8.714844 189.054688 8.714844 C 189.886719 8.714844 190.699219 8.851562 191.488281 9.125 C 192.277344 9.394531 193 9.789062 193.652344 10.304688 C 194.308594 10.820312 194.863281 11.429688 195.316406 12.128906 C 195.765625 12.832031 196.089844 13.585938 196.289062 14.398438 C 197.640625 19.964844 198.378906 25.609375 198.507812 31.339844 C 198.632812 37.066406 198.140625 42.738281 197.035156 48.359375 C 198.691406 50.988281 200.132812 53.730469 201.363281 56.582031 C 202.59375 59.4375 203.597656 62.367188 204.371094 65.375 C 205.144531 68.386719 205.679688 71.4375 205.976562 74.527344 C 206.277344 77.621094 206.335938 80.71875 206.152344 83.820312 C 206.082031 101.496094 198.707031 117.324219 185.421875 128.421875 C 180.8125 132.175781 175.800781 135.277344 170.386719 137.730469 C 164.972656 140.183594 159.335938 141.90625 153.476562 142.894531 C 155.460938 147.238281 156.835938 151.761719 157.605469 156.472656 C 158.375 161.183594 158.507812 165.910156 158.011719 170.660156 L 158.011719 208.785156 C 158.011719 209.273438 157.960938 209.757812 157.867188 210.238281 C 157.769531 210.71875 157.628906 211.1875 157.441406 211.636719 C 157.253906 212.089844 157.023438 212.519531 156.75 212.925781 C 156.480469 213.332031 156.167969 213.710938 155.824219 214.054688 C 155.476562 214.402344 155.097656 214.710938 154.691406 214.980469 C 154.285156 215.253906 153.851562 215.480469 153.402344 215.667969 C 152.949219 215.855469 152.480469 215.996094 152 216.089844 C 151.519531 216.183594 151.035156 216.230469 150.546875 216.230469 Z M 150.546875 216.230469 " fill-opacity="1" fill-rule="nonzero"/></g><g clip-path="url(#60c43539cf)"><path fill="#64ffda" d="M 70.964844 183.0625 C 54.503906 183.0625 44.769531 173.589844 37.609375 166.625 C 32.398438 161.554688 29.011719 158.433594 25.371094 158.433594 C 24.882812 158.433594 24.398438 158.386719 23.917969 158.289062 C 23.441406 158.195312 22.976562 158.054688 22.523438 157.867188 C 22.070312 157.679688 21.644531 157.449219 21.238281 157.179688 C 20.832031 156.90625 20.453125 156.597656 20.109375 156.253906 C 19.761719 155.90625 19.453125 155.53125 19.183594 155.125 C 18.910156 154.71875 18.683594 154.289062 18.496094 153.835938 C 18.308594 153.386719 18.167969 152.921875 18.070312 152.441406 C 17.976562 151.960938 17.929688 151.476562 17.929688 150.988281 C 17.929688 150.5 17.976562 150.015625 18.070312 149.535156 C 18.167969 149.058594 18.308594 148.589844 18.496094 148.140625 C 18.683594 147.6875 18.910156 147.257812 19.183594 146.851562 C 19.453125 146.445312 19.761719 146.070312 20.109375 145.722656 C 20.453125 145.378906 20.832031 145.070312 21.238281 144.796875 C 21.644531 144.527344 22.070312 144.296875 22.523438 144.109375 C 22.976562 143.921875 23.441406 143.78125 23.917969 143.6875 C 24.398438 143.589844 24.882812 143.542969 25.371094 143.542969 C 35.242188 143.542969 42.015625 150.132812 47.984375 155.941406 C 57.851562 165.535156 66.375 173.808594 89.753906 163.453125 C 90.199219 163.246094 90.664062 163.085938 91.144531 162.972656 C 91.621094 162.859375 92.109375 162.792969 92.601562 162.777344 C 93.09375 162.757812 93.582031 162.789062 94.070312 162.871094 C 94.554688 162.949219 95.03125 163.078125 95.492188 163.253906 C 95.953125 163.425781 96.390625 163.644531 96.808594 163.90625 C 97.226562 164.167969 97.613281 164.46875 97.972656 164.804688 C 98.332031 165.144531 98.652344 165.515625 98.9375 165.917969 C 99.222656 166.320312 99.464844 166.746094 99.664062 167.195312 C 99.863281 167.648438 100.015625 168.113281 100.125 168.59375 C 100.230469 169.074219 100.289062 169.5625 100.300781 170.054688 C 100.3125 170.546875 100.273438 171.039062 100.1875 171.523438 C 100.101562 172.007812 99.96875 172.480469 99.789062 172.9375 C 99.605469 173.398438 99.382812 173.835938 99.117188 174.25 C 98.851562 174.664062 98.542969 175.046875 98.203125 175.402344 C 97.859375 175.753906 97.484375 176.070312 97.078125 176.351562 C 96.671875 176.628906 96.242188 176.867188 95.789062 177.0625 C 86.105469 181.363281 77.933594 183.0625 70.964844 183.0625 Z M 70.964844 183.0625 " fill-opacity="1" fill-rule="nonzero"/></g></svg>