<svg xmlns="http://www.w3.org/2000/svg" xmlns:xlink="http://www.w3.org/1999/xlink" width="300" zoomAndPan="magnify" viewBox="0 0 224.87999 225" height="300" preserveAspectRatio="xMidYMid meet" version="1.0"><defs><clipPath id="c2bf3c4b58"><path d="M 11.933594 11.996094 L 212.828125 11.996094 L 212.828125 212.886719 L 11.933594 212.886719 Z M 11.933594 11.996094 " clip-rule="nonzero"/></clipPath></defs><g clip-path="url(#c2bf3c4b58)"><path fill="#64ffda" d="M 138.8125 33.140625 C 132.972656 33.140625 128.242188 28.40625 128.242188 22.566406 C 128.242188 16.726562 132.972656 11.996094 138.8125 11.996094 L 202.253906 11.996094 C 208.09375 11.996094 212.828125 16.726562 212.828125 22.566406 L 212.828125 86.007812 C 212.828125 91.847656 208.09375 96.582031 202.253906 96.582031 C 196.414062 96.582031 191.679688 91.847656 191.679688 86.007812 L 191.679688 48.09375 L 114.570312 125.203125 C 110.441406 129.332031 103.746094 129.332031 99.617188 125.203125 C 95.488281 121.074219 95.488281 114.378906 99.617188 110.25 L 176.726562 33.140625 Z M 43.65625 54.289062 C 37.816406 54.289062 33.082031 59.023438 33.082031 64.859375 L 33.082031 181.167969 C 33.082031 187.007812 37.816406 191.742188 43.65625 191.742188 L 159.960938 191.742188 C 165.800781 191.742188 170.535156 187.007812 170.535156 181.167969 L 170.535156 132.925781 C 170.535156 127.085938 175.269531 122.351562 181.105469 122.351562 C 186.945312 122.351562 191.679688 127.085938 191.679688 132.925781 L 191.679688 181.167969 C 191.679688 198.6875 177.480469 212.886719 159.960938 212.886719 L 43.65625 212.886719 C 26.136719 212.886719 11.933594 198.6875 11.933594 181.167969 L 11.933594 64.859375 C 11.933594 47.34375 26.136719 33.140625 43.65625 33.140625 L 91.894531 33.140625 C 97.734375 33.140625 102.46875 37.875 102.46875 43.714844 C 102.46875 49.554688 97.734375 54.289062 91.894531 54.289062 Z M 43.65625 54.289062 " fill-opacity="1" fill-rule="evenodd"/></g></svg>