<svg xmlns="http://www.w3.org/2000/svg" xmlns:xlink="http://www.w3.org/1999/xlink" width="300" zoomAndPan="magnify" viewBox="0 0 224.87999 225" height="300" preserveAspectRatio="xMidYMid meet" version="1.0"><path fill="#64ffda" d="M 140.703125 103.503906 C 134.375 97.179688 127.382812 90.1875 121.058594 83.859375 C 107.652344 70.453125 83.261719 72.011719 66.707031 88.566406 C 53.480469 101.796875 37.246094 118.03125 24.015625 131.261719 C 7.453125 147.820312 5.902344 172.203125 19.308594 185.609375 C 25.632812 191.9375 32.625 198.929688 38.953125 205.253906 C 52.355469 218.660156 76.742188 217.109375 93.300781 200.546875 C 102.6875 191.160156 113.589844 180.257812 123.859375 169.988281 C 126.515625 167.335938 126.515625 163.023438 123.859375 160.371094 C 121.207031 157.710938 116.898438 157.710938 114.242188 160.371094 C 103.972656 170.632812 93.070312 181.542969 83.683594 190.929688 C 72.933594 201.683594 57.273438 204.34375 48.570312 195.636719 C 48.570312 195.636719 28.925781 175.992188 28.925781 175.992188 C 20.21875 167.289062 22.878906 151.628906 33.632812 140.878906 C 46.863281 127.65625 63.097656 111.414062 76.324219 98.191406 C 87.078125 87.429688 102.734375 84.773438 111.441406 93.476562 C 111.441406 93.476562 131.085938 113.121094 131.085938 113.121094 C 133.738281 115.773438 138.050781 115.773438 140.703125 113.121094 C 143.355469 110.46875 143.355469 106.15625 140.703125 103.503906 Z M 83.800781 121.117188 C 90.125 127.445312 97.117188 134.4375 103.441406 140.761719 C 116.847656 154.167969 141.238281 152.609375 157.792969 136.054688 C 171.023438 122.828125 187.257812 106.589844 200.488281 93.363281 C 217.046875 76.800781 218.597656 52.417969 205.195312 39.011719 C 198.867188 32.6875 191.875 25.695312 185.550781 19.367188 C 172.144531 5.964844 147.761719 7.515625 131.199219 24.074219 C 121.8125 33.460938 110.910156 44.363281 100.640625 54.632812 C 97.988281 57.289062 97.988281 61.597656 100.640625 64.25 C 103.292969 66.910156 107.605469 66.910156 110.257812 64.25 C 120.527344 53.988281 131.429688 43.078125 140.816406 33.691406 C 151.570312 22.941406 167.226562 20.28125 175.933594 28.984375 C 175.933594 28.984375 195.574219 48.628906 195.574219 48.628906 C 204.28125 57.335938 201.621094 72.992188 190.871094 83.746094 C 177.640625 96.96875 161.40625 113.210938 148.175781 126.429688 C 137.421875 137.191406 121.765625 139.851562 113.058594 131.144531 C 113.058594 131.144531 93.417969 111.5 93.417969 111.5 C 90.765625 108.847656 86.453125 108.847656 83.800781 111.5 C 81.148438 114.15625 81.148438 118.464844 83.800781 121.117188 Z M 83.800781 121.117188 " fill-opacity="1" fill-rule="evenodd"/></svg>